<svg id="Layer_1" data-name="Layer 1" xmlns="http://www.w3.org/2000/svg" viewBox="0 0 999.69 214.75"><defs><style>.cls-1{fill:#e52426;}</style></defs><path class="cls-1" d="M32.28,105.57A82.74,82.74,0,0,1,115,22.84h0a82.73,82.73,0,0,1,82.71,82.73h0A82.71,82.71,0,0,1,115,188.28h0a82.74,82.74,0,0,1-82.73-82.71ZM58,48.56a80.32,80.32,0,0,0-23.62,57h0a80.28,80.28,0,0,0,23.62,57h0a80.33,80.33,0,0,0,57,23.61h0a80.35,80.35,0,0,0,57-23.61h0a80.35,80.35,0,0,0,23.61-57h0a80.33,80.33,0,0,0-23.61-57h0A80.39,80.39,0,0,0,115,25h0A80.38,80.38,0,0,0,58,48.56Z"/><polygon class="cls-1" points="117.84 6.4 124.93 7.38 119.83 12.42 121.09 19.47 114.73 16.18 108.41 19.55 109.58 12.48 104.41 7.52 111.49 6.44 114.62 0 117.84 6.4"/><path class="cls-1" d="M197.13,152.32c1.22-2.14,2.35-4.32,3.4-6.56,1.83.08,13.62.52,17.1-2.95,3.79-3.76,9.86-22.43,9.86-22.43s-15.07,4.79-20.89,8.49c.66-2.6,1.23-5.24,1.68-7.93,1.49-.35,13.26-3.26,15.68-7.65,2.59-4.67,3.16-24.3,3.16-24.3s-12.91,8.69-17.56,13.9a95.89,95.89,0,0,0-79.89-92.46l-.09,6.41A89.69,89.69,0,1,1,100,16.49l.08-6.42a95.89,95.89,0,0,0-82.21,92.57C12.05,98,0,91.69,0,91.69s2.73,19.46,5.8,23.81c2.11,3,9.13,4.66,13.33,5.41.39,2.39.88,4.75,1.45,7.07-6.76-3-20.29-6-20.29-6S8,140.05,12.09,143.46c2.87,2.38,10.31,2.11,14.51,1.73q1.7,3.65,3.68,7.14c-6.15-1.72-23.42-.85-23.42-.85S19.08,166.84,24,169.05c3.9,1.76,12.64-1.44,16-2.78q2.3,2.76,4.79,5.34c-7.32,1-20.37,5.63-20.37,5.63s16.09,11.27,21.37,12c3.52.48,9.28-3.27,12.74-5.83q3,2.11,6.16,4l-.27,0c-5.23,1.05-20.59,13.28-20.59,13.28s18.89,5.36,24.12,4.31c3.85-.77,8.58-7.32,10.81-10.73,2.35.92,4.74,1.75,7.19,2.49-5.47,4.55-14.54,16.65-14.54,16.65s19.62.41,24.42-1.93c3-1.46,5.59-7.17,7.09-11.22,2.39.26,4.81.45,7.25.54a8.22,8.22,0,0,0-3.34,2.24c-1.51,2.13-2.87,11.67-2.87,11.67s8.54-4.45,10.05-6.59a3.78,3.78,0,0,0,.22-.4,2.6,2.6,0,0,0,.23.4c1.51,2.14,10.05,6.59,10.05,6.59s-1.36-9.54-2.88-11.67a8.32,8.32,0,0,0-3.42-2.27c2.58-.12,5.14-.33,7.66-.65,1.44,4.05,4.12,10.31,7.3,11.86,4.8,2.33,24.43,1.93,24.43,1.93s-10.09-13.47-15.39-17.33c2.34-.73,4.65-1.54,6.91-2.44,2.47,3.48,6.21,8,9.37,8.62,5.23,1,24.13-4.3,24.13-4.3s-11.37-9.05-17.88-12.24q2.49-1.56,4.86-3.27c3.37,2.55,9.56,6.75,13.28,6.24,5.29-.72,21.37-12,21.37-12s-14.29-5-21.35-5.75q2.43-2.52,4.66-5.2c3.32,1.34,12.07,4.54,16,2.77,4.87-2.19,17.09-17.56,17.09-17.56S203.3,150.6,197.13,152.32Z"/><path class="cls-1" d="M121.82,151.07v-3.43a26.09,26.09,0,0,0,7.73-1.24,5,5,0,0,0,3-3.3,29.27,29.27,0,0,0,.74-7.84V108.13H94.33v25.76a61.34,61.34,0,0,0,.3,6.94A7.59,7.59,0,0,0,96,144.56a6,6,0,0,0,3.17,2,36.77,36.77,0,0,0,6.5,1.06v3.43H69.09v-3.43a34.81,34.81,0,0,0,6-.58,6.35,6.35,0,0,0,3.34-1.78,7.35,7.35,0,0,0,1.71-3.68,36.12,36.12,0,0,0,.46-6.6V76.65c0-4-.82-6.59-2.45-7.81s-4.66-1.94-9.11-2.14V63.27h36.57V66.7c-3.62,0-6.2.48-7.77,1.3a5.62,5.62,0,0,0-3,4,44.53,44.53,0,0,0-.61,8.78v22.77h38.93V77.4a17.51,17.51,0,0,0-.93-6.68,5,5,0,0,0-3.17-2.83,34.93,34.93,0,0,0-7.34-1.18V63.28h36.59v3.43c-3.65.13-6.25.51-7.76,1.18a5.24,5.24,0,0,0-3,3.73,41.08,41.08,0,0,0-.71,9.15V135a32.41,32.41,0,0,0,.68,7.72,5.7,5.7,0,0,0,3.07,3.82c1.59.81,4.15,1.17,7.7,1.1v3.42H121.82Z"/><path class="cls-1" d="M367.43,91.84c0-9.5,0-11.26-.13-13.26s-.69-3.14-2.92-3.56a16.67,16.67,0,0,0-2.64-.18c-.76,0-1.16-.13-1.16-.55s.47-.56,1.49-.56c1.82,0,3.78.07,5.47.07s3.32.13,4.27.13c2.18,0,15.64,0,16.94-.07a25.54,25.54,0,0,0,2.91-.38,6.39,6.39,0,0,1,1.09-.24c.33,0,.4.24.4.56a39,39,0,0,0-.53,4.07c-.07.62-.2,3.38-.34,4.14-.06.31-.2.69-.66.69s-.61-.32-.61-.87a6.17,6.17,0,0,0-.4-2.25c-.46-1.11-1.15-1.87-4.53-2.25-1.16-.11-8.26-.24-9.62-.24-.33,0-.46.18-.46.62V93.53c0,.45.06.69.46.69,1.49,0,9.28,0,10.84-.11s2.65-.31,3.25-.94.73-.82,1.09-.82.46.11.46.49-.26,1.38-.53,4.56c-.07,1.25-.27,3.76-.27,4.21s0,1.18-.6,1.18-.6-.25-.6-.56a14.4,14.4,0,0,0-.26-2.25c-.34-1.24-1.29-2.18-3.79-2.44-1.29-.14-8-.18-9.61-.18-.35,0-.4.24-.4.62v4.94c0,2.14-.07,7.88,0,9.7.13,4.32,1.2,5.25,8.12,5.25,1.76,0,4.61,0,6.37-.76s2.55-2.06,3-4.62c.14-.69.27-.94.74-.94s.53.49.53,1.14a45.23,45.23,0,0,1-.87,6.94c-.49,1.62-1.09,1.62-3.65,1.62-5.09,0-8.81-.13-11.72-.18s-5-.17-7-.17c-.73,0-2.23,0-3.87.06s-3.32.14-4.67.14c-.87,0-1.36-.18-1.36-.63s.27-.49,1.09-.49a13.08,13.08,0,0,0,2.42-.24c1.36-.24,1.69-1.62,2-3.45.34-2.62.34-7.56.34-13.33V91.84Z"/><path class="cls-1" d="M493.47,104.68c-.36,0-.47.13-.6.49l-3.65,8.94a11.11,11.11,0,0,0-1,3.81c0,1.13.6,1.93,2.71,1.93h1c.81,0,1,.13,1,.49s-.4.62-1.16.62c-2.16,0-5.07-.17-7.17-.17-.75,0-4.47.17-8,.17-.87,0-1.3-.13-1.3-.62s.27-.49.83-.49,1.56-.07,2.09-.13c3.11-.38,4.4-2.49,5.76-5.63L501,74.8c.8-1.83,1.2-2.52,1.89-2.52s1,.56,1.69,2c1.63,3.42,12.46,29,16.8,38.46,2.56,5.63,4.54,6.5,6,6.83a14.86,14.86,0,0,0,2.85.25c.53,0,.87.07.87.49s-.6.62-3.12.62-7.38,0-12.81-.13c-1.23-.07-2-.07-2-.49s.27-.49,1-.56a1,1,0,0,0,.6-1.44l-5.41-13.26a.66.66,0,0,0-.69-.45H493.47Zm13.82-3.14c.33,0,.4-.2.33-.38l-6.1-15.46c-.06-.25-.13-.56-.35-.56s-.34.31-.4.56l-6.23,15.4c-.07.24,0,.44.26.44Z"/><path class="cls-1" d="M597.33,91.84c0-9.5,0-11.26-.14-13.26s-.8-3.18-2.31-3.52a11.38,11.38,0,0,0-2.43-.24c-.69,0-1.09-.13-1.09-.62s.54-.49,1.63-.49c2.58,0,6.85.2,8.81.2,1.69,0,5.69-.2,8.25-.2.89,0,1.43.13,1.43.49s-.4.62-1.09.62a14.36,14.36,0,0,0-2,.18c-1.82.31-2.36,1.38-2.51,3.56-.14,2-.14,3.76-.14,13.26v11c0,6,0,11,.27,13.71.2,1.69.67,2.82,2.71,3.07a29.81,29.81,0,0,0,3.45.24c.74,0,1.09.2,1.09.49,0,.45-.53.62-1.29.62-4.47,0-8.74-.17-10.57-.17-1.55,0-5.83.17-8.52.17-.89,0-1.35-.17-1.35-.62s.26-.49,1.09-.49a13.32,13.32,0,0,0,2.44-.24c1.36-.25,1.76-1.32,2-3.14a133.13,133.13,0,0,0,.36-13.64v-11Z"/><path class="cls-1" d="M651.84,102.85c0,8,0,12.33,1.42,13.44,1.16.94,2.91,1.38,8.21,1.38,3.58,0,6.23-.07,7.92-1.76a7.71,7.71,0,0,0,1.76-3.76c.06-.55.2-.93.75-.93s.54.31.54,1.07a43.63,43.63,0,0,1-1,7.18c-.4,1.38-.73,1.69-4.27,1.69-4.87,0-8.39-.13-11.43-.17s-5.5-.18-8.28-.18c-.73,0-2.22,0-3.85.06s-3.31.14-4.67.14c-.89,0-1.36-.18-1.36-.62s.27-.49,1.09-.49a13.22,13.22,0,0,0,2.45-.25c1.36-.24,1.69-1.62,2-3.45a132.72,132.72,0,0,0,.35-13.32v-11c0-9.5,0-11.26-.13-13.26s-.67-3.13-2.91-3.56a12.14,12.14,0,0,0-2.23-.18c-.73,0-1.16-.13-1.16-.55s.49-.56,1.49-.56c3.19,0,7.46.2,9.28.2,1.63,0,6.57-.2,9.21-.2,1,0,1.43.14,1.43.56s-.4.55-1.23.55a22.53,22.53,0,0,0-2.64.18c-1.83.31-2.39,1.38-2.52,3.56-.13,2-.13,3.76-.13,13.26v11Z"/><path class="cls-1" d="M691.79,104.68c-.35,0-.46.13-.6.49l-3.65,8.94a11.11,11.11,0,0,0-1,3.81c0,1.13.62,1.93,2.72,1.93h1c.8,0,1,.13,1,.49s-.4.62-1.16.62c-2.15,0-5.07-.17-7.16-.17-.76,0-4.47.17-8,.17-.87,0-1.29-.13-1.29-.62s.27-.49.82-.49,1.56-.07,2.09-.13c3.12-.38,4.41-2.49,5.77-5.63l17-39.29c.81-1.83,1.21-2.52,1.9-2.52s1,.56,1.69,2c1.62,3.42,12.46,29,16.79,38.46,2.56,5.63,4.54,6.5,6,6.83a14.76,14.76,0,0,0,2.84.25c.54,0,.87.07.87.49s-.6.62-3.11.62-7.39,0-12.82-.13c-1.22-.07-2-.07-2-.49s.26-.49,1-.56a1,1,0,0,0,.6-1.44l-5.4-13.26a.68.68,0,0,0-.69-.45H691.79Zm13.82-3.14c.33,0,.4-.2.33-.38L699.85,85.7c-.07-.25-.14-.56-.36-.56s-.33.31-.4.56l-6.23,15.4c-.06.24,0,.44.27.44Z"/><path class="cls-1" d="M827.58,102.85a130.37,130.37,0,0,0,.35,13.33c.2,1.82.6,3.2,2.65,3.45a29.7,29.7,0,0,0,3.38.24c.89,0,1.16.2,1.16.49,0,.45-.47.63-1.49.63-4.27,0-8.54-.18-10.3-.18s-6,.18-8.61.18c-1,0-1.43-.14-1.43-.63,0-.31.27-.49,1-.49a13.32,13.32,0,0,0,2.44-.24c1.36-.25,1.7-1.63,2-3.45a126.76,126.76,0,0,0,.36-13.33v-11c0-9.5,0-11.26-.13-13.26S818.28,75.44,816,75a16.72,16.72,0,0,0-2.65-.18c-.66,0-1.15-.13-1.15-.51s.53-.62,1.55-.62c1.76,0,3.74.06,5.5.06s3.31.14,4.25.14c2.58,0,16.33,0,17.89-.07a16.76,16.76,0,0,0,2.78-.24,3.74,3.74,0,0,1,1.09-.38.5.5,0,0,1,.46.55c0,.45-.33,1.21-.53,2.83-.07.62-.2,4.32-.33,5.07-.07.49-.2.87-.69.87s-.6-.31-.67-1a5.76,5.76,0,0,0-.4-2.38c-.47-.87-1.89-1.8-4.47-1.87l-10.44-.18c-.4,0-.6.18-.6.87V93.62c0,.38.07.56.47.56l8.68-.07c1.15,0,2.09,0,3-.07a3.69,3.69,0,0,0,2.92-1.13c.33-.38.47-.63.87-.63s.4.18.4.56-.34,1.94-.54,3.89c-.13,1.25-.26,4.12-.26,4.57s0,1.2-.67,1.2c-.4,0-.54-.45-.54-.87a6.29,6.29,0,0,0-.4-1.94,3.93,3.93,0,0,0-3.44-2.24c-1.69-.2-8.88-.2-10-.2-.33,0-.47.13-.47.55v5Z"/><path class="cls-1" d="M858.73,91.84c0-9.5,0-11.26-.14-13.26s-.82-3.18-2.31-3.52a11.44,11.44,0,0,0-2.45-.24c-.67,0-1.09-.13-1.09-.62s.53-.49,1.63-.49c2.55,0,6.83.2,8.81.2,1.69,0,5.69-.2,8.25-.2.87,0,1.42.13,1.42.49s-.4.62-1.09.62a14.09,14.09,0,0,0-2,.18c-1.85.31-2.38,1.38-2.52,3.56-.13,2-.13,3.76-.13,13.26v11c0,6,0,11,.27,13.71.2,1.69.69,2.82,2.71,3.07a29.81,29.81,0,0,0,3.45.24c.74,0,1.09.2,1.09.49,0,.45-.53.62-1.29.62-4.47,0-8.72-.17-10.57-.17-1.55,0-5.83.17-8.54.17-.87,0-1.36-.17-1.36-.62s.27-.49,1.09-.49a13.2,13.2,0,0,0,2.43-.24c1.35-.25,1.76-1.32,2-3.14.33-2.63.33-7.59.33-13.64v-11Z"/><path class="cls-1" d="M886.89,91.84c0-9.5,0-11.26-.13-13.26s-.69-3.14-2.92-3.56a16.67,16.67,0,0,0-2.64-.18c-.76,0-1.16-.13-1.16-.55s.47-.56,1.49-.56c3.58,0,7.85.2,9.28.2,2.31,0,7.45-.2,9.54-.2,4.27,0,8.81.38,12.46,2.69A10.59,10.59,0,0,1,917.44,85c0,4.63-2.11,8.87-8.94,14,6,7,10.7,12.57,14.7,16.47,3.78,3.62,6.57,4.07,7.59,4.25a10.82,10.82,0,0,0,1.89.18c.56,0,.82.2.82.48,0,.49-.46.63-1.29.63h-6.43c-3.78,0-5.47-.31-7.25-1.18-2.91-1.45-5.5-4.38-9.28-9.19-2.71-3.45-5.83-7.7-6.69-8.63a1.48,1.48,0,0,0-1.23-.45l-5.89-.13c-.34,0-.54.13-.54.49v.87c0,5.83,0,10.76.34,13.39.2,1.82.6,3.2,2.64,3.45a32.59,32.59,0,0,0,3.32.24c.53,0,.82.2.82.49,0,.45-.47.63-1.36.63-3.93,0-8.94-.18-10-.18-1.29,0-5.56.18-8.26.18-.86,0-1.35-.18-1.35-.63s.26-.49,1.09-.49a13.08,13.08,0,0,0,2.42-.24c1.36-.25,1.69-1.63,2-3.45.33-2.63.33-7.56.33-13.33v-11Zm8,4.94c0,.69.14.93.6,1.13a18.91,18.91,0,0,0,5.16.63c2.72,0,3.59-.25,4.81-1.07,2-1.38,4-4.25,4-9.39,0-8.88-6.36-11.46-10.36-11.46a16.87,16.87,0,0,0-3.61.25c-.46.13-.6.37-.6.86Z"/><path class="cls-1" d="M271.52,77l-9.59.24c-3.74.14-5.27.45-6.25,1.83a7.16,7.16,0,0,0-1.09,2.18c-.14.49-.32.75-.72.75s-.57-.31-.57-1c0-1,1.22-6.69,1.35-7.21.2-.8.38-1.18.78-1.18s1.16.63,2.76.74c1.87.2,4.32.31,6.43.31h25.5a34,34,0,0,0,4.42-.31c1-.18,1.5-.31,1.74-.31.44,0,.51.38.51,1.31,0,1.31-.2,5.63-.2,7.25-.07.63-.2,1-.58,1s-.64-.31-.71-1.24l-.07-.69c-.13-1.63-1.86-3.38-7.58-3.52l-8.1-.17v25.65c0,5.76,0,10.7.31,13.39.2,1.76.58,3.14,2.51,3.38a29.42,29.42,0,0,0,3.28.25c.71,0,1,.18,1,.49s-.51.62-1.23.62c-4.24,0-8.29-.18-10.1-.18-1.46,0-5.54.18-8.09.18-.85,0-1.29-.18-1.29-.62s.24-.49,1-.49a11.11,11.11,0,0,0,2.31-.25c1.29-.24,1.67-1.62,1.87-3.44.31-2.63.31-7.57.31-13.33V77Z"/><path class="cls-1" d="M339.31,93.38c.2,0,.38-.14.38-.45V91.62c0-9.5,0-11.26-.14-13.26s-.64-3.14-2.76-3.56a12.41,12.41,0,0,0-2.51-.18c-.71,0-1.09-.11-1.09-.56s.45-.55,1.36-.55c3.47,0,7.52.2,9.25.2,1.54,0,5.59-.2,8.1-.2.89,0,1.36.13,1.36.55s-.38.56-1.16.56a13.91,13.91,0,0,0-1.87.18c-1.73.31-2.24,1.38-2.38,3.56-.13,2-.13,3.76-.13,13.26v11c0,5.76,0,10.7.31,13.39.2,1.76.58,3.14,2.51,3.39a32,32,0,0,0,3.27.24c.72,0,1,.18,1,.49s-.51.62-1.29.62c-4.18,0-8.23-.17-10-.17-1.46,0-5.51.17-8,.17-.89,0-1.36-.17-1.36-.62s.27-.49,1-.49a12,12,0,0,0,2.31-.24c1.29-.25,1.6-1.63,1.87-3.45.31-2.63.31-7.57.31-13.33V97.14a.37.37,0,0,0-.38-.38H314.72c-.2,0-.37.06-.37.38v5.49c0,5.76,0,10.7.31,13.39.2,1.76.58,3.14,2.51,3.39a31.84,31.84,0,0,0,3.27.24c.71,0,1,.18,1,.49s-.52.62-1.3.62c-4.18,0-8.23-.17-10-.17-1.47,0-5.54.17-8.1.17-.84,0-1.29-.17-1.29-.62s.25-.49,1-.49a12,12,0,0,0,2.31-.24c1.29-.25,1.6-1.63,1.87-3.45.31-2.63.31-7.57.31-13.33v-11c0-9.5,0-11.26-.13-13.26s-.65-3.14-2.76-3.56a12.46,12.46,0,0,0-2.52-.18c-.71,0-1.09-.11-1.09-.56s.45-.55,1.36-.55c3.47,0,7.52.2,9.26.2,1.55,0,5.6-.2,8.09-.2.92,0,1.36.13,1.36.55s-.38.56-1.16.56a13.64,13.64,0,0,0-1.86.18c-1.74.31-2.25,1.38-2.39,3.56-.13,2-.13,3.76-.13,13.26v1.31c0,.31.18.45.38.45Z"/><path class="cls-1" d="M458.34,93.38c.2,0,.38-.14.38-.45V91.62c0-9.5,0-11.26-.14-13.26s-.64-3.14-2.75-3.56a12.58,12.58,0,0,0-2.52-.18c-.71,0-1.09-.11-1.09-.56s.45-.55,1.36-.55c3.47,0,7.52.2,9.25.2,1.54,0,5.59-.2,8.1-.2.89,0,1.36.13,1.36.55s-.38.56-1.16.56a13.91,13.91,0,0,0-1.87.18c-1.73.31-2.24,1.38-2.38,3.56-.13,2-.13,3.76-.13,13.26v11c0,5.76,0,10.7.31,13.39.2,1.76.58,3.14,2.51,3.39a31.42,31.42,0,0,0,3.28.24c.71,0,1,.18,1,.49s-.51.62-1.29.62c-4.18,0-8.23-.17-10-.17-1.46,0-5.51.17-8,.17-.91,0-1.35-.17-1.35-.62s.26-.49,1-.49a11.77,11.77,0,0,0,2.31-.24c1.29-.25,1.6-1.63,1.87-3.45.31-2.63.31-7.57.31-13.33V97.14a.37.37,0,0,0-.38-.38H433.75a.33.33,0,0,0-.37.38v5.49c0,5.76,0,10.7.31,13.39.2,1.76.58,3.14,2.51,3.39a31.84,31.84,0,0,0,3.27.24c.71,0,1,.18,1,.49s-.52.62-1.29.62c-4.19,0-8.24-.17-10-.17-1.47,0-5.54.17-8.1.17-.84,0-1.29-.17-1.29-.62s.25-.49,1-.49a12,12,0,0,0,2.31-.24c1.29-.25,1.6-1.63,1.87-3.45.33-2.63.33-7.57.33-13.33v-11c0-9.5,0-11.26-.13-13.26s-.65-3.14-2.76-3.56a12.41,12.41,0,0,0-2.51-.18c-.72,0-1.09-.11-1.09-.56s.44-.55,1.35-.55c3.47,0,7.52.2,9.26.2,1.53,0,5.58-.2,8.1-.2.91,0,1.35.13,1.35.55s-.37.56-1.15.56a13.91,13.91,0,0,0-1.87.18c-1.74.31-2.25,1.38-2.38,3.56-.14,2-.14,3.76-.14,13.26v1.31a.4.4,0,0,0,.38.45Z"/><path class="cls-1" d="M538.17,91.91c0-9.53,0-11.26-.14-13.26s-.64-3.14-2.76-3.56a12.41,12.41,0,0,0-2.51-.18c-.71,0-1.09-.13-1.09-.56s.45-.55,1.42-.55c3.41,0,7.48.17,9.26.17,2,0,6-.17,9.9-.17,8,0,18.78,0,25.79,7.14a22.09,22.09,0,0,1,6.25,15.88,24.49,24.49,0,0,1-7,17.45c-3,2.93-9.66,7.38-21.56,7.38-2.31,0-5-.17-7.39-.38s-4.69-.37-6.29-.37c-.71,0-2.14,0-3.67.06s-3.14.14-4.43.14c-.85,0-1.29-.18-1.29-.63s.24-.49,1-.49a12.07,12.07,0,0,0,2.32-.24c1.29-.24,1.6-1.62,1.87-3.45.33-2.62.33-7.56.33-13.33v-11Zm8,6.87c0,6.63.07,11.46.13,12.64.07,1.56.2,4.07.71,4.76.85,1.18,3.34,2.49,8.44,2.49,6.56,0,10.92-1.24,14.79-4.49,4.12-3.45,5.41-9.15,5.41-15.58,0-7.94-3.41-13.08-6.19-15.64-5.91-5.49-13.26-6.25-18.26-6.25a16.66,16.66,0,0,0-4.19.45,1.12,1.12,0,0,0-.77,1.24c-.07,2.14-.07,7.57-.07,12.53v7.85Z"/><path class="cls-1" d="M727.81,79.94c-.77-2.32-1.46-3.81-2.38-4.45a5.69,5.69,0,0,0-2.58-.56c-.64,0-1-.07-1-.56s.51-.55,1.42-.55c3.34,0,6.88.18,7.46.18s3.4-.18,7.14-.18c.91,0,1.36.18,1.36.55s-.52.56-1.16.56a3.44,3.44,0,0,0-1.6.25c-.58.24-.71.69-.71,1.38a41.92,41.92,0,0,0,1.4,5.76c1.09,4.11,7.07,23.09,8.23,26.58h.2l12.48-32.59c.65-1.76,1.09-2.25,1.6-2.25.71,0,1,.94,1.87,2.94l13.37,31.46h.2c1.16-4.18,6.3-20.71,8.55-28a13.44,13.44,0,0,0,.64-3.63c0-1-.58-1.87-3.09-1.87-.65,0-1.09-.18-1.09-.56s.51-.55,1.47-.55c3.4,0,6.12.18,6.69.18s3.23-.18,5.34-.18c.72,0,1.16.13,1.16.51s-.31.62-.89.62a7.61,7.61,0,0,0-2.25.31c-1.53.56-2.24,3.08-3.6,6.63-3,7.88-9.72,27.77-12.86,37.16-.71,2.18-1,2.94-1.87,2.94-.64,0-1-.76-2-3.07L757.92,87.57h-.14c-1.22,3.2-9.76,25.34-12.54,31.1-1.23,2.56-1.54,3.32-2.32,3.32s-.91-.69-1.49-2.32Z"/><path class="cls-1" d="M945.25,74c.18-1.07.58-1.62,1.09-1.62s.91.31,1.74,1.93l17.55,35.29,17.49-35.73c.51-1,.84-1.49,1.4-1.49s1,.62,1.16,1.93L991.53,113c.58,3.94,1.22,5.74,3.16,6.32a13.28,13.28,0,0,0,4,.62c.58,0,1,.07,1,.45s-.78.69-1.67.69c-1.6,0-10.47-.18-13.06-.38-1.49-.13-1.86-.31-1.86-.69s.24-.49.71-.69.58-.94.31-2.69l-3.87-27.52H980l-14,28.41c-1.47,2.93-1.81,3.51-2.38,3.51s-1.23-1.24-2.25-3.13c-1.56-2.87-6.63-12.46-7.41-14.2-.58-1.31-4.45-9.21-6.7-13.88H947l-3.34,24.89a24.07,24.07,0,0,0-.2,2.94c0,1.2.84,1.76,1.93,2a12.73,12.73,0,0,0,2.72.31c.51,0,1,.12,1,.45,0,.56-.58.69-1.54.69-2.69,0-5.58-.18-6.74-.18s-4.32.18-6.36.18c-.65,0-1.16-.13-1.16-.69,0-.31.38-.45,1-.45a9.54,9.54,0,0,0,1.94-.17c1.8-.38,2.31-2.83,2.65-4.94Z"/><path class="cls-1" d="M821.61,149.91l-3.72,14a20.48,20.48,0,0,0-.42,2h-.05a16.24,16.24,0,0,0-.35-2l-3.37-14h-2.76l4.83,19h3.1l3.28-12.34c.32-1.21.57-2.69.57-2.69h0s.24,1.48.56,2.69l3.28,12.34h3.11l5-19H832l-3.5,14a12.82,12.82,0,0,0-.35,2h-.05s-.14-1-.41-2l-3.73-14Zm-30.17,2.61s.4,1.73.74,2.69l2.1,6h-5.77l2.12-6c.32-1,.76-2.69.76-2.69Zm5.42,16.41h2.79l-6.85-19H790l-6.85,19h2.73l1.9-5.47h7.17Zm-36.62,0h11.17v-2.31H762.9V149.91h-2.66Zm-40.39,0h2.66v-16.7H729v-2.32h-15.7v2.32h6.51Zm-24.7-16.41s.4,1.73.74,2.69l2.1,6h-5.77l2.15-6c.32-1,.76-2.69.76-2.69Zm5.43,16.41h2.78l-6.85-19H693.7l-6.85,19h2.74l1.89-5.47h7.17Zm-56-2.16a9,9,0,0,0,6.31,2.48c3.77,0,6-2.41,6-5.34,0-6.16-9.22-5.13-9.22-9,0-1.5,1.43-2.76,3.45-2.76a6.71,6.71,0,0,1,4.16,1.63l1.21-2.22a7.73,7.73,0,0,0-5.37-1.92c-3.58,0-6.14,2.34-6.14,5.3,0,5.86,9.22,5,9.22,9.09,0,1.8-1.5,2.81-3.28,2.81a7.5,7.5,0,0,1-4.85-2Zm-21.15,2.16h2.66v-8.05l6.36-10.95h-3L626,156.19c-.59,1.06-1.16,2.39-1.16,2.39h-.05a25.76,25.76,0,0,0-1.15-2.39l-3.53-6.26h-3l6.38,10.95Zm-30.21,0h11.51v-2.31h-8.85v-6.11h6.8v-2.32h-6.8v-6h8.38v-2.32h-11Zm-31.18,0h2.66V156.59c0-1.09-.19-2.76-.19-2.76h.05s.91,1.72,1.6,2.76l8.48,12.34h2.61v-19h-2.66v12.37c0,1.06.17,2.74.17,2.74h0s-.89-1.73-1.58-2.74l-8.47-12.37h-2.64v19Zm-25.38-9.88v-6.82h3.08a5.71,5.71,0,0,1,2.61.41,3.51,3.51,0,0,1-1.87,6.39h-3.82ZM534,168.93h2.66v-7.59h4.07l4,7.59h3l-4-7.39a5.14,5.14,0,0,0-.57-.86v-.08a5.63,5.63,0,0,0,.22-10.27,9.65,9.65,0,0,0-3.55-.42H534Zm-31.45-9.63a7,7,0,1,1,14.05,0,7,7,0,1,1-14.05,0m-2.76,0a9.76,9.76,0,1,0,19.52,0,9.76,9.76,0,0,0-19.52,0m-21.1,9.63h2.67v-16.7h6.53v-2.32h-15.7v2.32h6.53v16.7Zm-27.45,0h2.66v-16.7h6.53v-2.32h-15.7v2.32h6.51Zm-24.72-16.41s.4,1.73.74,2.69l2.1,6h-5.77l2.12-6c.32-1,.76-2.69.76-2.69ZM432,168.93h2.78l-6.85-19h-2.78l-6.85,19h2.76l1.87-5.47h7.17Z"/></svg>